<svg viewBox="0 290 1260 140" width="100%" height="100%" xmlns="http://www.w3.org/2000/svg" xmlns:xlink="http://www.w3.org/1999/xlink">
  <text fill="#243040" font-family="Arial,Arial_MSFontService,sans-serif" font-weight="700" font-size="110" transform="translate(19.32 400)">M<tspan font-size="110" x="163.5" y="0">C</tspan><tspan font-size="110" x="315" y="0">S</tspan><tspan font-size="110" x="410" y="0">P</tspan><tspan fill="#2A5C99" font-size="110" x="515" y="0">LAB</tspan></text>
  <path d="M271.5 330.5C281.441 330.5 289.5 343.932 289.5 360.5 289.5 377.069 281.441 390.5 271.5 390.5" stroke="#2A5C99" stroke-width="9" stroke-linecap="round" stroke-miterlimit="8" fill="none" fill-rule="evenodd"/>
  <path d="M291.5 305.5C308.621 305.5 322.5 330.124 322.5 360.5 322.5 390.876 308.621 415.5 291.5 415.5" stroke="#2A5C99" stroke-width="9" stroke-linecap="round" stroke-miterlimit="8" fill="none" fill-rule="evenodd"/>
  <path d="M0 0 0 110" stroke="#243040" stroke-width="8" stroke-miterlimit="8" stroke-opacity="0.4" fill="none" fill-rule="evenodd" transform="matrix(-1 0 0 1 772 305)"/>
  <text fill="#2A5C99" font-family="HarmonyOS Sans,HarmonyOS Sans_MSFontService,sans-serif" font-weight="700" font-size="32" transform="translate(787.048 352)">M<tspan fill="#000000" font-weight="400" font-size="32" x="29.6733" y="0">OBILE</tspan><tspan font-size="32" x="138.047" y="0">C</tspan><tspan fill="#243040" font-weight="400" font-size="32" x="160.387" y="0">OMMUNICATIONS</tspan><tspan fill="#243040" font-weight="400" font-size="32" x="0" y="38">AND</tspan><tspan font-size="32" x="78.36" y="38">S</tspan><tspan fill="#243040" font-weight="400" font-size="32" x="97.8667" y="38">IGNAL </tspan><tspan font-size="32" x="203.24" y="38">P</tspan><tspan fill="#243040" font-weight="400" font-size="32" x="224.08" y="38">ROCESSING</tspan></text>
  <path d="M176.5 390.5C167.111 390.5 159.5 377.069 159.5 360.5 159.5 343.932 167.111 330.5 176.5 330.5" stroke="#2A5C99" stroke-width="9" stroke-linecap="round" stroke-miterlimit="8" fill="none" fill-rule="evenodd"/>
  <path d="M156.5 415.5C139.932 415.5 126.5 390.876 126.5 360.5 126.5 330.124 139.932 305.5 156.5 305.5" stroke="#2A5C99" stroke-width="9" stroke-linecap="round" stroke-miterlimit="8" fill="none" fill-rule="evenodd"/>
</svg>